<svg width="34" height="36" viewBox="0 0 34 36" fill="none" xmlns="http://www.w3.org/2000/svg">
<path d="M18.8523 21.7824L16.6149 18.1244C15.7981 16.7749 15.3364 15.2123 15.3364 13.6141C15.3364 12.3356 15.8692 11.0571 16.757 10.1338C17.0056 9.8852 17.0766 9.53007 16.9346 9.21046C16.7925 8.89084 16.5084 8.67773 16.1532 8.67773H7.73626C7.38112 8.67773 7.09703 8.89082 6.95493 9.21046C6.81283 9.53009 6.8839 9.88523 7.13249 10.1338C8.05583 11.0571 8.55305 12.3001 8.55305 13.5786C8.55305 15.1768 8.12688 16.7394 7.27455 18.0889L5.00166 21.7824L0.668976 29.5243C-0.0413028 30.8028 -0.0413028 32.2944 0.70449 33.5374C1.48582 34.8514 2.90638 35.6682 4.5045 35.6682H19.4201C21.0182 35.6682 22.4388 34.8869 23.2201 33.5374C23.9659 32.2944 23.9659 30.8028 23.2556 29.5243L18.8523 21.7824ZM8.73068 19.0123C9.72507 17.3786 10.2578 15.5319 10.2578 13.6141C10.2578 12.4777 9.97368 11.3768 9.40546 10.3824H14.4486C13.9158 11.3768 13.5962 12.4777 13.5962 13.6141C13.5962 15.5319 14.1289 17.3786 15.1233 19.0123L16.4018 21.1076C16.0112 21.2497 15.6205 21.3207 15.2299 21.3562C14.342 21.3917 13.7028 21.0721 12.886 20.6459C12.1757 20.2908 11.3944 19.8646 10.329 19.687C9.65421 19.5805 8.97943 19.5805 8.2692 19.687L8.73068 19.0123ZM21.7644 32.6851C21.3027 33.5019 20.4148 33.9636 19.4205 33.9636H4.50483C3.51044 33.9636 2.6581 33.4664 2.16093 32.6851C1.73476 31.9393 1.73476 31.087 2.16093 30.3412L6.49361 22.6702L6.99083 21.8533C8.09177 21.3561 9.15717 21.1786 10.1161 21.3561C10.8974 21.4982 11.5011 21.8178 12.1403 22.1374C12.9572 22.5636 13.8805 23.0608 15.1235 23.0608H15.3011C15.9759 23.0253 16.6506 22.8832 17.2899 22.5991L17.3254 22.6701L21.6936 30.3766C22.1908 31.0869 22.1906 31.9393 21.7644 32.6851Z" fill="black"/>
<path d="M17.8594 8.71291C17.8594 10.098 18.9958 11.2344 20.3809 11.2344C21.7659 11.2344 22.9024 10.098 22.9024 8.71291C22.9024 7.32785 21.7659 6.19141 20.3809 6.19141C18.9958 6.19141 17.8594 7.32785 17.8594 8.71291ZM20.3809 7.86057C20.8425 7.86057 21.2332 8.25123 21.2332 8.71291C21.2332 9.17459 20.8426 9.56524 20.3809 9.56524C19.9192 9.56524 19.5285 9.17459 19.5285 8.71291C19.5285 8.25123 19.9192 7.86057 20.3809 7.86057Z" fill="black"/>
<path d="M10.2598 7.85941C11.6448 7.85941 12.7813 6.72296 12.7813 5.33791C12.7813 3.95285 11.6448 2.81641 10.2598 2.81641C8.87473 2.81641 7.73828 3.95285 7.73828 5.33791C7.73828 6.72296 8.87473 7.85941 10.2598 7.85941ZM10.2598 4.52108C10.7215 4.52108 11.1121 4.91173 11.1121 5.37341C11.1121 5.83509 10.7215 6.22575 10.2598 6.22575C9.7981 6.22575 9.40745 5.83509 9.40745 5.37341C9.44296 4.87619 9.7981 4.52108 10.2598 4.52108Z" fill="black"/>
<path d="M16.5805 6.19124C18.2141 6.19124 19.5282 4.87723 19.5282 3.24357C19.5282 1.6099 18.2141 0.295898 16.5805 0.295898C14.9468 0.295898 13.6328 1.6099 13.6328 3.24357C13.6328 4.87723 14.9468 6.19124 16.5805 6.19124ZM16.5805 1.96507C17.2908 1.96507 17.859 2.53329 17.859 3.24357C17.859 3.95385 17.2908 4.52207 16.5805 4.52207C15.8702 4.52207 15.302 3.95385 15.302 3.24357C15.302 2.53329 15.9057 1.96507 16.5805 1.96507Z" fill="black"/>
<path d="M11.1113 23.0254C9.72629 23.0254 8.58984 24.1618 8.58984 25.5469C8.58984 26.9319 9.72629 28.0684 11.1113 28.0684C12.4964 28.0684 13.6328 26.9319 13.6328 25.5469C13.6328 24.1618 12.4964 23.0254 11.1113 23.0254ZM11.1113 26.3992C10.6497 26.3992 10.259 26.0086 10.259 25.5469C10.259 25.0852 10.6497 24.6946 11.1113 24.6946C11.573 24.6946 11.9637 25.0852 11.9637 25.5469C11.9637 26.0086 11.573 26.3992 11.1113 26.3992Z" fill="black"/>
<path d="M7.31095 27.252C5.67729 27.252 4.36328 28.566 4.36328 30.1996C4.36328 31.8333 5.67729 33.1473 7.31095 33.1473C8.94462 33.1473 10.2586 31.8333 10.2586 30.1996C10.2586 28.566 8.94462 27.252 7.31095 27.252ZM7.31095 31.4426C6.60067 31.4426 6.03245 30.8744 6.03245 30.1641C6.03245 29.4538 6.60067 28.8856 7.31095 28.8856C8.02123 28.8856 8.58945 29.4538 8.58945 30.1641C8.58945 30.8744 8.02123 31.4426 7.31095 31.4426Z" fill="black"/>
<path d="M16.1543 27.252C14.7693 27.252 13.6328 28.3884 13.6328 29.7735C13.6328 31.1585 14.7693 32.295 16.1543 32.295C17.5394 32.295 18.6758 31.1585 18.6758 29.7735C18.6758 28.3884 17.5749 27.252 16.1543 27.252ZM16.1543 30.6258C15.6926 30.6258 15.302 30.2351 15.302 29.7735C15.302 29.3118 15.6926 28.9211 16.1543 28.9211C16.616 28.9211 17.0067 29.3118 17.0067 29.7735C17.0067 30.2351 16.616 30.6258 16.1543 30.6258Z" fill="black"/>
<path d="M33.733 10.8086C33.591 10.56 33.3068 10.418 33.0227 10.418H24.6058C24.3216 10.418 24.0375 10.56 23.8955 10.8086C23.7534 11.0572 23.7179 11.3768 23.86 11.6255C24.3572 12.6198 24.6057 13.7208 24.6057 14.8217V31.4779C24.6057 32.6499 25.103 33.7863 25.9908 34.6031C26.7721 35.3134 27.802 35.7041 28.8319 35.7041C28.974 35.7041 29.116 35.7041 29.2226 35.6686C31.3534 35.4555 33.0226 33.5732 33.0226 31.3359V14.822C33.0226 13.721 33.2712 12.6201 33.7684 11.6257C33.9104 11.3771 33.8751 11.0572 33.733 10.8086ZM31.3181 14.8217V31.3356C31.3181 32.7207 30.3237 33.8571 29.0452 33.9992C28.3349 34.0702 27.6246 33.8216 27.0919 33.36C26.5592 32.8983 26.2751 32.188 26.2751 31.4777V31.4422H28.7966C29.2582 31.4422 29.6489 31.0516 29.6489 30.5899C29.6489 30.1282 29.2582 29.7375 28.7966 29.7375H26.2751V28.0684H28.7966C29.2582 28.0684 29.6489 27.6777 29.6489 27.216C29.6489 26.7544 29.2582 26.3637 28.7966 26.3637H26.2751V24.73H28.7966C29.2582 24.73 29.6489 24.3394 29.6489 23.8777C29.6489 23.416 29.2582 23.0254 28.7966 23.0254H26.2751V21.3562H28.7966C29.2582 21.3562 29.6489 20.9655 29.6489 20.5039C29.6489 20.0422 29.2582 19.6515 28.7966 19.6515H26.2751V17.9824H28.7966C29.2582 17.9824 29.6489 17.5917 29.6489 17.13C29.6489 16.6684 29.2582 16.2777 28.7966 16.2777H26.2751V14.7506C26.2751 13.8272 26.133 12.9039 25.8489 12.016H31.7798C31.4602 12.9749 31.3181 13.8983 31.3181 14.8217Z" fill="black"/>
</svg>
